# Created by Metasequoia

mtllib 7712.mtl

v 24.000000 93.000000 60.000000
v 24.000000 93.000000 98.000000
v 47.000000 93.000000 96.000000
v 48.000000 93.000000 37.000000
v 26.000000 93.000000 -59.000000
v 26.000000 85.000000 -59.000000
v 24.000000 85.000000 60.000000
v 24.000000 85.000000 99.000000
v 47.000000 85.000000 96.000000
v 49.000000 85.000000 38.000000
v 50.000000 93.000000 -67.000000
v 23.000000 93.000000 -100.000000
v 23.000000 85.000000 -102.000000
v 45.000000 93.000000 -97.000000
v 47.000000 85.000000 -99.000000
v 0.000000 93.000000 -102.000000
v 0.000000 93.000000 -55.000000
v 23.000000 93.000000 -59.000000
v 22.000000 93.000000 -100.000000
v 21.000000 85.000000 -102.000000
v 0.000000 85.000000 -103.000000
v 0.000000 85.000000 -55.000000
v 0.000000 93.000000 61.000000
v 22.000000 93.000000 59.000000
v 22.000000 85.000000 59.000000
v 23.000000 85.000000 -59.000000
v 0.000000 93.000000 97.000000
v 22.000000 93.000000 99.000000
v 21.000000 85.000000 99.000000
v -21.000000 93.000000 75.000000
v 0.000000 93.000000 100.000000
v -2.000000 93.000000 59.000000
v -24.000000 93.000000 -55.000000
v -24.000000 85.000000 -55.000000
v -21.000000 85.000000 75.000000
v -20.000000 93.000000 100.000000
v -20.000000 85.000000 102.000000
v -1.000000 85.000000 101.000000
v -2.000000 85.000000 59.000000
v 0.000000 93.000000 -57.000000
v -21.000000 93.000000 -101.000000
v -20.000000 85.000000 -102.000000
v -1.000000 93.000000 -100.000000
v -2.000000 85.000000 -102.000000
v -43.000000 93.000000 -97.000000
v -45.000000 93.000000 -59.000000
v -25.000000 93.000000 -56.000000
v -23.000000 85.000000 -101.000000
v -44.000000 85.000000 -97.000000
v -46.000000 85.000000 -57.000000
v -43.000000 93.000000 67.000000
v -23.000000 93.000000 75.000000
v -23.000000 85.000000 75.000000
v -26.000000 85.000000 -56.000000
v -42.000000 93.000000 98.000000
v -21.000000 93.000000 100.000000
v -22.000000 85.000000 102.000000
v 23.000000 41.000000 86.000000
v 35.000000 83.000000 92.000000
v 24.000000 83.000000 88.000000
v 25.000000 39.000000 75.000000
v 27.000000 0.000000 78.000000
v 24.000000 0.000000 88.000000
v 33.000000 41.000000 88.000000
v 37.000000 83.000000 82.000000
v 36.000000 39.000000 78.000000
v 27.000000 83.000000 78.000000
v 35.000000 0.000000 92.000000
v 37.000000 0.000000 82.000000
v 27.000000 39.000000 -73.000000
v 36.000000 83.000000 -83.000000
v 27.000000 83.000000 -78.000000
v 22.000000 39.000000 -83.000000
v 23.000000 0.000000 -86.000000
v 27.000000 0.000000 -78.000000
v 36.000000 41.000000 -80.000000
v 31.000000 83.000000 -92.000000
v 30.000000 41.000000 -88.000000
v 23.000000 83.000000 -86.000000
v 36.000000 0.000000 -83.000000
v 31.000000 0.000000 -92.000000
v -24.000000 0.000000 -89.000000
v -34.000000 0.000000 -87.000000
v -38.000000 39.000000 -87.000000
v -27.000000 39.000000 -91.000000
v -21.000000 0.000000 -80.000000
v -24.000000 41.000000 -82.000000
v -32.000000 0.000000 -76.000000
v -34.000000 41.000000 -78.000000
v -32.000000 83.000000 -76.000000
v -34.000000 83.000000 -87.000000
v -24.000000 83.000000 -89.000000
v -21.000000 83.000000 -80.000000
v -25.000000 39.000000 76.000000
v -32.000000 83.000000 80.000000
v -22.000000 83.000000 78.000000
v -23.000000 41.000000 86.000000
v -19.000000 0.000000 88.000000
v -22.000000 0.000000 78.000000
v -36.000000 39.000000 78.000000
v -31.000000 83.000000 90.000000
v -33.000000 41.000000 89.000000
v -19.000000 83.000000 88.000000
v -32.000000 0.000000 80.000000
v -31.000000 0.000000 90.000000
v -45.000000 85.000000 68.000000
v -42.000000 85.000000 99.000000
v 0.000000 85.000000 61.000000
v 0.000000 85.000000 98.000000
v 48.000000 85.000000 -65.000000
v 0.000000 85.000000 -57.000000
# 111 vertices

vt 0.00000 1.00000
# 1 texture vertices

vn 0.00000 1.00000 0.00000
vn 0.00000 1.00000 0.00000
vn -0.99965 0.00000 0.02642
vn -0.99965 -0.00107 0.02662
vn -0.99996 0.00000 -0.00840
vn -0.99996 0.00000 -0.00840
vn -1.00000 0.00000 0.00000
vn -1.00000 0.00000 0.00000
vn 0.12028 0.02633 0.99239
vn 0.09535 0.09736 0.99067
vn 0.08597 0.12358 0.98860
vn 0.12934 0.00000 0.99160
vn 0.99224 0.12174 0.02532
vn 0.99977 0.01109 0.01845
vn 0.99986 0.00000 0.01695
vn 0.99263 0.11827 0.02653
vn 0.96241 -0.25487 -0.09381
vn -0.99724 -0.01572 0.07250
vn -0.99717 -0.01824 0.07296
vn 0.12772 0.26365 -0.95613
vn 0.13006 0.27096 -0.95376
vn 0.12241 0.24709 -0.96123
vn 0.12039 0.24077 -0.96309
vn 0.07938 0.20836 -0.97482
vn 0.08808 0.23122 -0.96891
vn 0.05694 0.14946 -0.98713
vn 0.04720 0.12390 -0.99117
vn 0.99986 0.00000 0.01673
vn 0.99985 -0.00785 0.01516
vn 0.99997 0.00000 -0.00795
vn 0.99993 -0.00695 -0.00931
vn 0.99395 -0.10067 -0.04389
vn 0.99258 -0.11253 -0.04617
vn 0.99409 -0.10853 0.00315
vn 0.99228 -0.12403 0.00000
vn -0.99952 0.00000 -0.03091
vn -0.99953 -0.00624 -0.02985
vn -0.99950 0.00000 0.03152
vn -0.99951 0.00091 0.03123
vn -0.99927 0.00768 0.03751
vn 0.01278 0.21233 0.97711
vn 0.00000 0.24254 0.97014
vn 0.03819 0.15145 0.98773
vn 0.05220 0.11744 0.99171
vn 0.99996 -0.00785 -0.00478
vn 0.99255 -0.11312 -0.04518
vn 0.99036 -0.12983 -0.04831
vn 0.99999 0.00000 -0.00328
vn 1.00000 0.00000 -0.00301
vn -0.99249 -0.10236 -0.06704
vn -0.99117 -0.11582 -0.06464
vn 0.03708 0.21019 -0.97696
vn 0.04852 0.23654 -0.97041
vn 0.01369 0.15598 -0.98767
vn 0.00000 0.12403 -0.99228
vn -0.18044 0.04028 -0.98276
vn -0.17871 0.04468 -0.98289
vn -0.18522 0.02809 -0.98229
vn -0.18706 0.02338 -0.98207
vn -0.99260 0.11939 -0.02221
vn -0.99115 0.12225 -0.05182
vn -0.99093 0.12387 -0.05215
vn -0.99226 0.12358 -0.01200
vn -0.97001 0.24234 0.01881
vn 0.99965 -0.00243 -0.02629
vn 0.99946 -0.01325 -0.03006
vn 0.99203 -0.12158 0.03292
vn 0.99091 -0.13084 0.03122
vn 0.97116 -0.22874 0.06724
vn 0.96812 -0.24203 0.06454
vn 0.99119 -0.11242 -0.07002
vn 0.98656 -0.14305 -0.07893
vn -0.34151 -0.03659 0.93916
vn -0.31930 -0.04400 0.94663
vn -0.20899 -0.01639 0.97778
vn -0.98293 -0.01872 -0.18303
vn -0.96090 0.05815 -0.27072
vn -0.98243 -0.00838 -0.18644
vn -0.96267 -0.04173 -0.26745
vn -0.95716 -0.03735 -0.28715
vn -0.20879 -0.01760 0.97780
vn -0.31925 0.07008 0.94507
vn 0.97557 -0.06283 0.21053
vn 0.96025 0.00425 0.27911
vn 0.97849 -0.06523 0.19570
vn 0.96064 0.01768 0.27724
vn 0.35383 0.07237 -0.93251
vn 0.27128 -0.01754 -0.96234
vn 0.37032 0.07575 -0.92581
vn 0.27267 -0.01549 -0.96198
vn -0.95592 0.06300 -0.28678
vn -0.34079 0.07481 0.93716
vn 0.97654 0.05013 0.20941
vn 0.97958 0.04521 0.19592
vn 0.35119 -0.05965 -0.93440
vn 0.37088 -0.05230 -0.92721
vn 0.48326 0.09885 0.86988
vn 0.50367 0.09219 0.85896
vn 0.60938 -0.02696 0.79242
vn -0.89442 -0.00335 0.44721
vn -0.89327 0.05075 0.44664
vn -0.89442 -0.00301 0.44721
vn -0.89296 -0.05724 0.44648
vn -0.89296 -0.05724 0.44648
vn 0.60535 -0.01036 0.79589
vn 0.50949 -0.07000 0.85762
vn 0.86318 -0.04102 -0.50323
vn 0.80625 -0.01294 -0.59143
vn 0.87363 -0.03467 -0.48535
vn 0.80608 -0.01414 -0.59163
vn -0.58867 -0.05972 -0.80616
vn -0.53645 0.00277 -0.84393
vn -0.59885 -0.06179 -0.79847
vn -0.53815 0.01717 -0.84267
vn -0.89327 0.05075 0.44664
vn 0.48465 -0.06383 0.87237
vn 0.86239 0.06498 -0.50206
vn 0.87210 0.06854 -0.48450
vn -0.59039 0.04966 -0.80559
vn -0.59936 0.04610 -0.79915
vn -0.32983 -0.01699 -0.94389
vn -0.19608 -0.02011 -0.98038
vn -0.22391 -0.03042 -0.97414
vn -0.33163 -0.01982 -0.94320
vn 0.94663 0.05611 -0.31740
vn 0.94838 0.00843 -0.31702
vn 0.94716 0.05667 -0.31572
vn 0.94880 -0.00558 -0.31583
vn 0.34571 0.06949 0.93576
vn 0.36884 -0.00298 0.92949
vn 0.34089 0.07067 0.93744
vn 0.36882 -0.00282 0.92950
vn -0.97525 -0.04741 0.21597
vn -0.91976 -0.02276 0.39183
vn -0.98311 -0.03924 0.17875
vn -0.91728 -0.03638 0.39657
vn -0.97434 0.08029 0.21028
vn -0.97996 0.08909 0.17817
vn -0.21926 0.05368 -0.97419
vn -0.19579 0.05785 -0.97894
vn 0.94784 -0.05240 -0.31442
vn 0.94737 -0.05263 -0.31579
vn 0.34590 -0.06248 0.93619
vn 0.34111 -0.06091 0.93805
vn -0.19316 0.05831 -0.97943
vn -0.18010 -0.00196 -0.98365
vn 0.97881 0.00325 -0.20477
vn 0.95944 -0.07463 -0.27186
vn 0.97819 0.01997 -0.20674
vn 0.95957 0.06323 -0.27429
vn 0.95617 0.05884 -0.28685
vn -0.18032 -0.00191 -0.98361
vn -0.19254 -0.06912 -0.97885
vn -0.98909 0.07839 0.12470
vn -0.96615 -0.02570 0.25669
vn -0.99138 0.08562 0.09914
vn -0.96749 -0.01266 0.25260
vn 0.18405 -0.03796 0.98218
vn 0.27634 -0.01404 0.96096
vn 0.16432 -0.03130 0.98591
vn 0.27658 -0.01531 0.96087
vn 0.95496 -0.07731 -0.28649
vn -0.19563 -0.07023 -0.97816
vn -0.99015 -0.05264 0.12977
vn -0.99398 -0.04606 0.09940
vn 0.18339 0.05995 0.98121
vn 0.16406 0.06402 0.98437
vn -0.97379 0.22599 0.02580
vn -0.99505 0.04904 0.08643
vn -0.99528 0.01204 0.09632
vn -0.13139 0.22421 0.96564
vn -0.10595 0.15534 0.98216
vn -0.09408 0.12348 0.98788
vn -0.14336 0.25686 0.95576
vn -0.05789 0.03449 0.99773
vn -0.08062 0.09772 0.99194
vn -0.08984 0.12353 0.98827
vn -0.04756 0.00595 0.99885
vn 0.97352 -0.21943 -0.06410
vn 0.98283 0.17828 -0.04757
vn 0.96805 0.24913 -0.02847
vn -0.99927 0.00925 0.03701
vn 0.99997 -0.00666 -0.00425
vn 0.99393 -0.10167 -0.04203
vn 0.99261 -0.11305 -0.04412
# 185 normal vertices

usemtl mat6443
f 1/1/2 2/1/2 3/1/1
f 1/1/2 3/1/1 4/1/2
f 1/1/2 4/1/2 5/1/2
usemtl mat6563
f 1/1/5 5/1/4 6/1/3
f 1/1/5 6/1/3 7/1/6
f 1/1/5 7/1/6 2/1/7
f 2/1/7 7/1/6 8/1/8
usemtl mat6451
f 2/1/11 8/1/10 3/1/9
f 3/1/9 8/1/10 9/1/12
usemtl mat6563
f 3/1/15 9/1/14 4/1/13
f 4/1/13 9/1/14 10/1/16
f 4/1/13 10/1/16 11/1/17
usemtl mat6443
f 4/1/2 11/1/2 5/1/2
f 5/1/2 11/1/2 12/1/2
usemtl mat6563
f 5/1/4 12/1/19 13/1/18
f 5/1/4 13/1/18 6/1/3
usemtl mat6443
f 12/1/2 11/1/2 14/1/2
usemtl mat6451
f 12/1/22 14/1/21 15/1/20
f 12/1/22 15/1/20 13/1/23
usemtl mat6443
f 16/1/2 17/1/2 18/1/2
f 16/1/2 18/1/2 19/1/2
usemtl mat6451
f 16/1/26 19/1/25 20/1/24
f 16/1/26 20/1/24 21/1/27
usemtl mat6563
f 16/1/7 21/1/8 17/1/7
f 17/1/7 21/1/8 22/1/8
f 17/1/7 22/1/8 23/1/8
usemtl mat6443
f 17/1/2 23/1/2 24/1/2
f 17/1/2 24/1/2 18/1/2
usemtl mat6563
f 18/1/30 24/1/29 25/1/28
f 18/1/30 25/1/28 26/1/31
f 18/1/30 26/1/31 19/1/32
f 19/1/32 26/1/31 20/1/33
usemtl mat6443
f 23/1/2 27/1/1 28/1/2
f 23/1/2 28/1/2 24/1/2
usemtl mat6563
f 24/1/29 28/1/35 29/1/34
f 24/1/29 29/1/34 25/1/28
usemtl mat6443
f 30/1/2 31/1/2 32/1/2
f 30/1/2 32/1/2 33/1/2
usemtl mat6563
f 30/1/38 33/1/37 34/1/36
f 30/1/38 34/1/36 35/1/39
f 30/1/38 35/1/39 36/1/40
usemtl mat6443
f 30/1/2 36/1/1 31/1/2
usemtl mat6451
f 31/1/43 36/1/42 37/1/41
f 31/1/43 37/1/41 38/1/44
usemtl mat6563
f 31/1/47 38/1/46 32/1/45
f 32/1/45 38/1/46 39/1/48
f 32/1/45 39/1/48 40/1/49
usemtl mat6443
f 32/1/2 40/1/2 33/1/2
f 33/1/2 40/1/2 41/1/2
usemtl mat6563
f 33/1/37 41/1/51 42/1/50
f 33/1/37 42/1/50 34/1/36
usemtl mat6443
f 41/1/2 40/1/2 43/1/1
usemtl mat6451
f 41/1/54 43/1/53 44/1/52
f 41/1/54 44/1/52 42/1/55
usemtl mat6443
f 45/1/1 46/1/2 47/1/2
f 45/1/1 47/1/2 41/1/2
usemtl mat6451
f 45/1/58 41/1/57 48/1/56
f 45/1/58 48/1/56 49/1/59
usemtl mat6563
f 45/1/62 49/1/61 46/1/60
f 46/1/60 49/1/61 50/1/63
f 46/1/60 50/1/63 51/1/64
usemtl mat6443
f 46/1/2 51/1/2 52/1/2
f 46/1/2 52/1/2 47/1/2
usemtl mat6563
f 47/1/67 52/1/66 53/1/65
f 47/1/67 53/1/65 54/1/68
f 47/1/67 54/1/68 41/1/69
f 41/1/69 54/1/68 48/1/70
usemtl mat6443
f 51/1/2 55/1/2 56/1/2
f 51/1/2 56/1/2 52/1/2
usemtl mat6563
f 52/1/66 56/1/72 57/1/71
f 52/1/66 57/1/71 53/1/65
f 58/1/75 59/1/74 60/1/73
usemtl mat6439
f 58/1/78 60/1/77 61/1/76
f 58/1/78 61/1/76 62/1/79
f 58/1/78 62/1/79 63/1/80
usemtl mat6563
f 58/1/75 63/1/82 64/1/81
f 58/1/75 64/1/81 59/1/74
usemtl mat6439
f 59/1/85 64/1/84 65/1/83
f 65/1/83 64/1/84 66/1/86
usemtl mat6563
f 65/1/89 66/1/88 67/1/87
f 67/1/87 66/1/88 61/1/90
usemtl mat6439
f 67/1/91 61/1/76 60/1/77
usemtl mat6563
f 63/1/82 68/1/92 64/1/81
usemtl mat6439
f 64/1/84 68/1/93 66/1/86
f 66/1/86 68/1/93 69/1/94
usemtl mat6563
f 66/1/88 69/1/95 61/1/90
f 61/1/90 69/1/95 62/1/96
f 70/1/99 71/1/98 72/1/97
usemtl mat6439
f 70/1/102 72/1/101 73/1/100
f 70/1/102 73/1/100 74/1/103
f 70/1/102 74/1/103 75/1/104
usemtl mat6563
f 70/1/99 75/1/106 76/1/105
f 70/1/99 76/1/105 71/1/98
usemtl mat6439
f 71/1/109 76/1/108 77/1/107
f 77/1/107 76/1/108 78/1/110
usemtl mat6563
f 77/1/113 78/1/112 79/1/111
f 79/1/111 78/1/112 73/1/114
usemtl mat6439
f 79/1/115 73/1/100 72/1/101
usemtl mat6563
f 75/1/106 80/1/116 76/1/105
usemtl mat6439
f 76/1/108 80/1/117 78/1/110
f 78/1/110 80/1/117 81/1/118
usemtl mat6563
f 78/1/112 81/1/119 73/1/114
f 73/1/114 81/1/119 74/1/120
f 82/1/123 83/1/122 84/1/121
f 82/1/123 84/1/121 85/1/124
usemtl mat6439
f 82/1/127 85/1/126 86/1/125
f 86/1/125 85/1/126 87/1/128
usemtl mat6563
f 86/1/131 87/1/130 88/1/129
f 88/1/129 87/1/130 89/1/132
usemtl mat6439
f 88/1/135 89/1/134 83/1/133
f 83/1/133 89/1/134 84/1/136
f 84/1/136 89/1/134 90/1/137
f 84/1/136 90/1/137 91/1/138
usemtl mat6563
f 84/1/121 91/1/139 85/1/124
f 85/1/124 91/1/139 92/1/140
usemtl mat6439
f 85/1/126 92/1/141 87/1/128
f 87/1/128 92/1/141 93/1/142
usemtl mat6563
f 87/1/130 93/1/143 89/1/132
f 89/1/132 93/1/143 90/1/144
f 94/1/146 95/1/145 96/1/140
usemtl mat6439
f 94/1/149 96/1/148 97/1/147
f 94/1/149 97/1/147 98/1/150
f 94/1/149 98/1/150 99/1/151
usemtl mat6563
f 94/1/146 99/1/153 100/1/152
f 94/1/146 100/1/152 95/1/145
usemtl mat6439
f 95/1/156 100/1/155 101/1/154
f 101/1/154 100/1/155 102/1/157
usemtl mat6563
f 101/1/160 102/1/159 103/1/158
f 103/1/158 102/1/159 97/1/161
usemtl mat6439
f 103/1/162 97/1/147 96/1/148
usemtl mat6563
f 99/1/153 104/1/163 100/1/152
usemtl mat6439
f 100/1/155 104/1/164 102/1/157
f 102/1/157 104/1/164 105/1/165
usemtl mat6563
f 102/1/159 105/1/166 97/1/161
f 97/1/161 105/1/166 98/1/167
f 106/1/168 51/1/64 50/1/63
f 51/1/64 106/1/168 55/1/169
f 55/1/169 106/1/168 107/1/170
usemtl mat6451
f 55/1/173 107/1/172 56/1/171
f 56/1/171 107/1/172 57/1/174
usemtl mat6563
f 22/1/8 108/1/8 23/1/8
f 23/1/8 108/1/8 27/1/8
f 27/1/8 108/1/8 109/1/8
usemtl mat6451
f 27/1/177 109/1/176 28/1/175
f 28/1/175 109/1/176 29/1/178
usemtl mat6563
f 14/1/180 11/1/17 110/1/179
f 14/1/180 110/1/179 15/1/181
f 11/1/17 10/1/16 110/1/179
f 36/1/40 35/1/39 37/1/182
f 40/1/49 39/1/48 111/1/183
f 40/1/49 111/1/183 43/1/184
f 43/1/184 111/1/183 44/1/185
# 152 elements

